<svg width="79" height="79" viewBox="0 0 79 79" fill="none" xmlns="http://www.w3.org/2000/svg">
<rect y="39.8553" width="56.364" height="54.9498" transform="rotate(-45 0 39.8553)" fill="#049DD9"/>
<path d="M42.25 34.5C42.95 34.5 43.63 34.6 44.27 34.77L37.25 29.5L29.25 35.5V47.5H36.01C34.91 46.13 34.25 44.39 34.25 42.5C34.25 38.08 37.83 34.5 42.25 34.5Z" fill="white"/>
<path d="M42.25 41.25C41.56 41.25 41 41.81 41 42.5C41 42.9 41.2 43.25 41.5 43.47V48.5H43V43.47C43.3 43.24 43.5 42.9 43.5 42.5C43.5 41.81 42.94 41.25 42.25 41.25Z" fill="white"/>
<path d="M42.25 38.5C40.04 38.5 38.25 40.29 38.25 42.5C38.25 43.6 38.7 44.6 39.42 45.33L40.48 44.27C40.03 43.82 39.75 43.19 39.75 42.5C39.75 41.12 40.87 40 42.25 40C43.63 40 44.75 41.12 44.75 42.5C44.75 43.19 44.47 43.81 44.02 44.26L45.08 45.32C45.8 44.6 46.25 43.6 46.25 42.5C46.25 40.29 44.46 38.5 42.25 38.5Z" fill="white"/>
<path d="M42.25 36C38.66 36 35.75 38.91 35.75 42.5C35.75 44.29 36.48 45.92 37.65 47.1L38.71 46.04C37.81 45.13 37.25 43.88 37.25 42.5C37.25 39.74 39.49 37.5 42.25 37.5C45.01 37.5 47.25 39.74 47.25 42.5C47.25 43.87 46.69 45.12 45.79 46.02L46.86 47.08C48.03 45.9 48.75 44.28 48.75 42.5C48.75 38.91 45.84 36 42.25 36Z" fill="white"/>
</svg>
