<svg width="86" height="13" viewBox="0 0 86 13" fill="none" xmlns="http://www.w3.org/2000/svg">
<g clip-path="url(#clip0_15_31408)">
<path d="M42.6079 12.894C42.3735 12.894 42.143 12.833 41.9393 12.7169C41.7356 12.6008 41.5655 12.4338 41.446 12.2321L35.805 2.6991H6.68594C6.3279 2.6991 5.98453 2.55689 5.73135 2.30371C5.47818 2.05054 5.33594 1.70716 5.33594 1.34912C5.33594 0.991079 5.47818 0.647705 5.73135 0.394531C5.98453 0.141357 6.3279 -0.000976562 6.68594 -0.000976562H36.5729C36.8074 -0.000958938 37.0379 0.0601987 37.2416 0.17627C37.4453 0.29234 37.6154 0.459437 37.735 0.661133L42.606 8.89209L47.476 0.661133C47.5955 0.459437 47.7656 0.29234 47.9693 0.17627C48.173 0.0601987 48.4035 -0.000958938 48.6379 -0.000976562H78.7239C79.082 -0.000976562 79.4254 0.141357 79.6786 0.394531C79.9317 0.647705 80.0739 0.991079 80.0739 1.34912C80.0739 1.70716 79.9317 2.05054 79.6786 2.30371C79.4254 2.55689 79.082 2.6991 78.7239 2.6991H49.4099L43.77 12.2321C43.6504 12.4338 43.4804 12.6008 43.2766 12.7169C43.0729 12.833 42.8424 12.894 42.6079 12.894Z" fill="white"/>
<path d="M84.6439 2.69693C85.3878 2.69693 85.9909 2.09386 85.9909 1.34993C85.9909 0.606002 85.3878 0.00292969 84.6439 0.00292969C83.8999 0.00292969 83.2969 0.606002 83.2969 1.34993C83.2969 2.09386 83.8999 2.69693 84.6439 2.69693Z" fill="white"/>
<path d="M1.347 2.69693C2.09093 2.69693 2.694 2.09386 2.694 1.34993C2.694 0.606002 2.09093 0.00292969 1.347 0.00292969C0.603072 0.00292969 0 0.606002 0 1.34993C0 2.09386 0.603072 2.69693 1.347 2.69693Z" fill="white"/>
</g>
<defs>
<clipPath id="clip0_15_31408">
<rect width="85.99" height="12.894" fill="white"/>
</clipPath>
</defs>
</svg>
