<svg width="254" height="259" viewBox="0 0 254 259" fill="none" xmlns="http://www.w3.org/2000/svg">
<rect width="254" height="211.909" rx="10" fill="white"/>
<path d="M54.61 259L32.613 206.023H76.6071L54.61 259Z" fill="white"/>
<path d="M143.667 54.5H147.833V75.3333H143.667V54.5ZM139.5 62.8333H131.167V58.6667H139.5V54.5H127V67H135.333V71.1667H127V75.3333H139.5V62.8333ZM152 54.5V75.3333H156.167V67H164.5V54.5H152ZM160.333 62.8333H156.167V58.6667H160.333V62.8333ZM160.333 106.583C155.125 106.583 150.125 105.75 145.458 104.208C145.042 104.083 144.583 104 144.167 104C143.083 104 142.042 104.417 141.25 105.208L132.083 114.375C120.292 108.375 110.625 98.75 104.625 86.9167L113.792 77.7083C114.917 76.625 115.25 75 114.792 73.5417C113.25 68.875 112.417 63.875 112.417 58.6667C112.417 56.375 110.542 54.5 108.25 54.5H93.6667C91.375 54.5 89.5 56.375 89.5 58.6667C89.5 97.7917 121.208 129.5 160.333 129.5C162.625 129.5 164.5 127.625 164.5 125.333V110.75C164.5 108.458 162.625 106.583 160.333 106.583ZM97.9583 62.8333H104.208C104.5 66.5 105.125 70.125 106.125 73.625L101.125 78.6667C99.4167 73.625 98.3333 68.3333 97.9583 62.8333ZM156.167 121.042C150.667 120.667 145.375 119.583 140.333 117.917L145.333 112.917C148.875 113.917 152.458 114.542 156.125 114.792V121.042H156.167Z" fill="#007AC7"/>
<path d="M37.2756 179V152.818H42.8111V174.436H54.0355V179H37.2756ZM63.2369 152.818V179H57.7013V152.818H63.2369ZM85.152 161.281C84.973 160.659 84.7216 160.109 84.3977 159.632C84.0739 159.146 83.6776 158.737 83.2088 158.405C82.7486 158.064 82.2202 157.804 81.6236 157.625C81.0355 157.446 80.3835 157.357 79.6676 157.357C78.3295 157.357 77.1534 157.689 76.1392 158.354C75.1335 159.018 74.3494 159.986 73.7869 161.256C73.2244 162.517 72.9432 164.06 72.9432 165.884C72.9432 167.707 73.2202 169.259 73.7741 170.537C74.3281 171.815 75.1122 172.791 76.1264 173.464C77.1406 174.129 78.3381 174.462 79.7188 174.462C80.9716 174.462 82.0412 174.24 82.9276 173.797C83.8224 173.345 84.5043 172.71 84.973 171.892C85.4503 171.074 85.6889 170.107 85.6889 168.99L86.8139 169.156H80.0639V164.989H91.0199V168.287C91.0199 170.588 90.5341 172.565 89.5625 174.219C88.5909 175.864 87.2528 177.134 85.5483 178.028C83.8438 178.915 81.892 179.358 79.6932 179.358C77.2386 179.358 75.0824 178.817 73.2244 177.734C71.3665 176.643 69.9176 175.097 68.8778 173.094C67.8466 171.082 67.331 168.696 67.331 165.935C67.331 163.812 67.6378 161.92 68.2514 160.259C68.8736 158.588 69.7429 157.173 70.8594 156.014C71.9759 154.855 73.2756 153.973 74.7585 153.368C76.2415 152.763 77.848 152.46 79.5781 152.46C81.0611 152.46 82.4418 152.678 83.7202 153.112C84.9986 153.538 86.1321 154.143 87.1207 154.928C88.1179 155.712 88.9318 156.645 89.5625 157.727C90.1932 158.801 90.598 159.986 90.777 161.281H85.152ZM111.35 152.818H116.885V169.821C116.885 171.73 116.429 173.401 115.517 174.832C114.614 176.264 113.348 177.381 111.721 178.182C110.093 178.974 108.196 179.371 106.032 179.371C103.858 179.371 101.958 178.974 100.33 178.182C98.7021 177.381 97.4364 176.264 96.533 174.832C95.6296 173.401 95.1779 171.73 95.1779 169.821V152.818H100.713V169.348C100.713 170.345 100.931 171.232 101.365 172.007C101.809 172.783 102.431 173.392 103.232 173.835C104.033 174.278 104.966 174.5 106.032 174.5C107.105 174.5 108.039 174.278 108.831 173.835C109.632 173.392 110.25 172.783 110.685 172.007C111.128 171.232 111.35 170.345 111.35 169.348V152.818ZM121.44 179V152.818H139.082V157.382H126.975V163.621H138.174V168.185H126.975V174.436H139.133V179H121.44ZM163.052 152.818V179H157.516V158.072H157.363L151.367 161.831V156.922L157.849 152.818H163.052ZM179.042 179.358C177.073 179.358 175.321 179.038 173.787 178.399C172.262 177.751 171.064 176.869 170.195 175.753C169.326 174.636 168.891 173.371 168.891 171.956C168.891 170.865 169.138 169.864 169.632 168.952C170.135 168.031 170.817 167.268 171.678 166.663C172.539 166.05 173.502 165.658 174.567 165.487V165.308C173.169 165.027 172.036 164.349 171.167 163.276C170.297 162.193 169.863 160.936 169.863 159.504C169.863 158.149 170.259 156.943 171.051 155.886C171.844 154.821 172.931 153.986 174.311 153.381C175.701 152.767 177.277 152.46 179.042 152.46C180.806 152.46 182.378 152.767 183.759 153.381C185.148 153.994 186.239 154.834 187.032 155.899C187.824 156.956 188.225 158.158 188.233 159.504C188.225 160.945 187.782 162.202 186.904 163.276C186.026 164.349 184.901 165.027 183.529 165.308V165.487C184.577 165.658 185.527 166.05 186.38 166.663C187.24 167.268 187.922 168.031 188.425 168.952C188.936 169.864 189.196 170.865 189.205 171.956C189.196 173.371 188.757 174.636 187.888 175.753C187.019 176.869 185.817 177.751 184.283 178.399C182.757 179.038 181.01 179.358 179.042 179.358ZM179.042 175.293C179.919 175.293 180.686 175.135 181.343 174.82C181.999 174.496 182.51 174.053 182.877 173.49C183.252 172.919 183.439 172.263 183.439 171.521C183.439 170.763 183.248 170.094 182.864 169.514C182.48 168.926 181.961 168.466 181.304 168.134C180.648 167.793 179.894 167.622 179.042 167.622C178.198 167.622 177.444 167.793 176.779 168.134C176.114 168.466 175.59 168.926 175.206 169.514C174.831 170.094 174.644 170.763 174.644 171.521C174.644 172.263 174.827 172.919 175.194 173.49C175.56 174.053 176.076 174.496 176.74 174.82C177.405 175.135 178.172 175.293 179.042 175.293ZM179.042 163.595C179.775 163.595 180.426 163.446 180.998 163.148C181.569 162.849 182.016 162.436 182.34 161.908C182.664 161.379 182.826 160.77 182.826 160.08C182.826 159.398 182.664 158.801 182.34 158.29C182.016 157.77 181.573 157.365 181.01 157.075C180.448 156.777 179.792 156.628 179.042 156.628C178.3 156.628 177.644 156.777 177.073 157.075C176.502 157.365 176.054 157.77 175.73 158.29C175.415 158.801 175.257 159.398 175.257 160.08C175.257 160.77 175.419 161.379 175.743 161.908C176.067 162.436 176.515 162.849 177.086 163.148C177.657 163.446 178.309 163.595 179.042 163.595ZM202.842 179.358C200.874 179.358 199.122 179.038 197.588 178.399C196.063 177.751 194.865 176.869 193.996 175.753C193.126 174.636 192.692 173.371 192.692 171.956C192.692 170.865 192.939 169.864 193.433 168.952C193.936 168.031 194.618 167.268 195.479 166.663C196.339 166.05 197.303 165.658 198.368 165.487V165.308C196.97 165.027 195.837 164.349 194.967 163.276C194.098 162.193 193.663 160.936 193.663 159.504C193.663 158.149 194.06 156.943 194.852 155.886C195.645 154.821 196.732 153.986 198.112 153.381C199.501 152.767 201.078 152.46 202.842 152.46C204.607 152.46 206.179 152.767 207.56 153.381C208.949 153.994 210.04 154.834 210.832 155.899C211.625 156.956 212.026 158.158 212.034 159.504C212.026 160.945 211.582 162.202 210.705 163.276C209.827 164.349 208.702 165.027 207.33 165.308V165.487C208.378 165.658 209.328 166.05 210.18 166.663C211.041 167.268 211.723 168.031 212.226 168.952C212.737 169.864 212.997 170.865 213.006 171.956C212.997 173.371 212.558 174.636 211.689 175.753C210.82 176.869 209.618 177.751 208.084 178.399C206.558 179.038 204.811 179.358 202.842 179.358ZM202.842 175.293C203.72 175.293 204.487 175.135 205.143 174.82C205.8 174.496 206.311 174.053 206.678 173.49C207.053 172.919 207.24 172.263 207.24 171.521C207.24 170.763 207.048 170.094 206.665 169.514C206.281 168.926 205.761 168.466 205.105 168.134C204.449 167.793 203.695 167.622 202.842 167.622C201.999 167.622 201.244 167.793 200.58 168.134C199.915 168.466 199.391 168.926 199.007 169.514C198.632 170.094 198.445 170.763 198.445 171.521C198.445 172.263 198.628 172.919 198.994 173.49C199.361 174.053 199.876 174.496 200.541 174.82C201.206 175.135 201.973 175.293 202.842 175.293ZM202.842 163.595C203.575 163.595 204.227 163.446 204.798 163.148C205.369 162.849 205.817 162.436 206.141 161.908C206.464 161.379 206.626 160.77 206.626 160.08C206.626 159.398 206.464 158.801 206.141 158.29C205.817 157.77 205.374 157.365 204.811 157.075C204.249 156.777 203.592 156.628 202.842 156.628C202.101 156.628 201.445 156.777 200.874 157.075C200.303 157.365 199.855 157.77 199.531 158.29C199.216 158.801 199.058 159.398 199.058 160.08C199.058 160.77 199.22 161.379 199.544 161.908C199.868 162.436 200.315 162.849 200.886 163.148C201.457 163.446 202.109 163.595 202.842 163.595Z" fill="#496D86"/>
</svg>
