<svg width="254" height="259" viewBox="0 0 254 259" fill="none" xmlns="http://www.w3.org/2000/svg">
<rect width="254" height="211.909" rx="10" fill="white"/>
<path d="M54.61 259L32.613 206.023H76.6071L54.61 259Z" fill="white"/>
<path d="M92.3764 160.984H86.777C86.6747 160.26 86.4659 159.616 86.1506 159.054C85.8352 158.483 85.4304 157.997 84.9361 157.597C84.4418 157.196 83.8707 156.889 83.223 156.676C82.5838 156.463 81.8892 156.357 81.1392 156.357C79.7841 156.357 78.6037 156.693 77.598 157.366C76.5923 158.031 75.8125 159.003 75.2585 160.281C74.7045 161.551 74.4276 163.094 74.4276 164.909C74.4276 166.776 74.7045 168.344 75.2585 169.614C75.821 170.884 76.6051 171.842 77.6108 172.49C78.6165 173.138 79.7798 173.462 81.1009 173.462C81.8423 173.462 82.5284 173.364 83.1591 173.168C83.7983 172.972 84.3651 172.686 84.8594 172.311C85.3537 171.928 85.7628 171.463 86.0866 170.918C86.419 170.372 86.6491 169.75 86.777 169.051L92.3764 169.077C92.2315 170.278 91.8693 171.438 91.2898 172.554C90.7188 173.662 89.9474 174.655 88.9759 175.533C88.0128 176.402 86.8622 177.092 85.5241 177.604C84.1946 178.107 82.6903 178.358 81.0114 178.358C78.6761 178.358 76.5881 177.83 74.7472 176.773C72.9148 175.716 71.4659 174.186 70.4006 172.183C69.3438 170.18 68.8153 167.756 68.8153 164.909C68.8153 162.054 69.3523 159.625 70.4261 157.622C71.5 155.619 72.9574 154.094 74.7983 153.045C76.6392 151.989 78.7102 151.46 81.0114 151.46C82.5284 151.46 83.9347 151.673 85.2301 152.099C86.5341 152.526 87.6889 153.148 88.6946 153.966C89.7003 154.776 90.5185 155.768 91.1491 156.945C91.7884 158.121 92.1974 159.467 92.3764 160.984ZM96.3459 178V151.818H101.881V162.621H113.119V151.818H118.641V178H113.119V167.185H101.881V178H96.3459ZM127.718 178H121.786L130.825 151.818H137.958L146.984 178H141.052L134.494 157.801H134.289L127.718 178ZM127.347 167.709H141.359V172.03H127.347V167.709ZM145.939 156.382V151.818H167.441V156.382H159.426V178H153.954V156.382H145.939Z" fill="#496D86"/>
<path d="M134.5 59.6666V88.8333H93.5416L88.6666 93.7083V59.6666H134.5ZM138.667 51.3333H84.4999C82.2083 51.3333 80.3333 53.2083 80.3333 55.4999V113.833L96.9999 97.1666H138.667C140.958 97.1666 142.833 95.2916 142.833 92.9999V55.4999C142.833 53.2083 140.958 51.3333 138.667 51.3333ZM159.5 67.9999H151.167V105.5H96.9999V113.833C96.9999 116.125 98.8749 118 101.167 118H147L163.667 134.667V72.1666C163.667 69.8749 161.792 67.9999 159.5 67.9999Z" fill="#049DD9"/>
</svg>
