<svg width="79" height="79" viewBox="0 0 79 79" fill="none" xmlns="http://www.w3.org/2000/svg">
<rect y="39.8553" width="56.364" height="54.9498" transform="rotate(-45 0 39.8553)" fill="#049DD9"/>
<path d="M44.4801 38.4126C44.0901 38.8026 43.4401 38.8026 43.0501 38.4126L38.5801 33.9526L31.5301 40.9926L30.8701 40.3626C29.7001 39.1926 29.7001 37.2926 30.8701 36.1226L35.1101 31.8826C36.2801 30.7126 38.1801 30.7126 39.3501 31.8826L44.4801 37.0026C44.8701 37.3926 44.8701 38.0226 44.4801 38.4126ZM45.1801 36.2926C45.9601 37.0726 45.9601 38.3426 45.1801 39.1226C43.9101 40.3926 42.5701 39.3426 42.3501 39.1226L38.5901 35.3626L33.0201 40.9326C32.6301 41.3226 32.6301 41.9526 33.0201 42.3426C33.4101 42.7326 34.0401 42.7326 34.4401 42.3426L39.0601 37.7226L39.7701 38.4326L35.1501 43.0526C34.7601 43.4426 34.7601 44.0726 35.1501 44.4626C35.5401 44.8526 36.1701 44.8526 36.5701 44.4626L41.1901 39.8426L41.9001 40.5526L37.2801 45.1726C36.8901 45.5626 36.8901 46.1926 37.2801 46.5826C37.6701 46.9726 38.3001 46.9726 38.6901 46.5826L43.3101 41.9626L44.0201 42.6726L39.4001 47.2926C39.0101 47.6826 39.0101 48.3126 39.4001 48.7026C39.7901 49.0926 40.4201 49.0926 40.8101 48.7026L49.1301 40.3626C50.3001 39.1926 50.3001 37.2926 49.1301 36.1226L44.8901 31.8826C43.7401 30.7326 41.8801 30.7126 40.7101 31.8226L45.1801 36.2926Z" fill="white"/>
</svg>
