<svg width="79" height="79" viewBox="0 0 79 79" fill="none" xmlns="http://www.w3.org/2000/svg">
<path d="M0 39.8555L39.8554 0.000114729L78.7107 38.8555L38.8554 78.7108L0 39.8555Z" fill="#049DD9"/>
<path d="M47.5 28V31H50.5V33H47.5V36H45.5V33H42.5V31H45.5V28H47.5ZM39.5 40C40.6 40 41.5 39.1 41.5 38C41.5 36.9 40.6 36 39.5 36C38.4 36 37.5 36.9 37.5 38C37.5 39.1 38.4 40 39.5 40ZM41.5 30.25V34H44.5V37H47.42C47.47 37.39 47.5 37.79 47.5 38.2C47.5 41.52 44.83 45.45 39.5 50C34.17 45.45 31.5 41.52 31.5 38.2C31.5 33.22 35.3 30 39.5 30C40.18 30 40.85 30.08 41.5 30.25Z" fill="white"/>
</svg>
