<svg width="254" height="259" viewBox="0 0 254 259" fill="none" xmlns="http://www.w3.org/2000/svg">
<rect width="254" height="211.909" rx="10" fill="white"/>
<path d="M54.6098 259L32.6127 206.023H76.6068L54.6098 259Z" fill="white"/>
<path d="M62.7884 177H56.8565L65.8949 150.818H73.0284L82.054 177H76.1222L69.5639 156.801H69.3594L62.7884 177ZM62.4176 166.709H76.429V171.03H62.4176V166.709ZM101.336 159.281C101.157 158.659 100.905 158.109 100.581 157.632C100.257 157.146 99.8612 156.737 99.3924 156.405C98.9322 156.064 98.4038 155.804 97.8072 155.625C97.2191 155.446 96.5671 155.357 95.8512 155.357C94.5131 155.357 93.337 155.689 92.3228 156.354C91.3171 157.018 90.533 157.986 89.9705 159.256C89.408 160.517 89.1268 162.06 89.1268 163.884C89.1268 165.707 89.4038 167.259 89.9577 168.537C90.5117 169.815 91.2958 170.791 92.31 171.464C93.3242 172.129 94.5217 172.462 95.9023 172.462C97.1552 172.462 98.2248 172.24 99.1112 171.797C100.006 171.345 100.688 170.71 101.157 169.892C101.634 169.074 101.873 168.107 101.873 166.99L102.998 167.156H96.2475V162.989H107.203V166.287C107.203 168.588 106.718 170.565 105.746 172.219C104.775 173.864 103.436 175.134 101.732 176.028C100.027 176.915 98.0756 177.358 95.8768 177.358C93.4222 177.358 91.266 176.817 89.408 175.734C87.5501 174.643 86.1012 173.097 85.0614 171.094C84.0302 169.082 83.5146 166.696 83.5146 163.935C83.5146 161.812 83.8214 159.92 84.435 158.259C85.0572 156.588 85.9265 155.173 87.043 154.014C88.1594 152.855 89.4592 151.973 90.9421 151.368C92.4251 150.763 94.0316 150.46 95.7617 150.46C97.2447 150.46 98.6254 150.678 99.9038 151.112C101.182 151.538 102.316 152.143 103.304 152.928C104.301 153.712 105.115 154.645 105.746 155.727C106.377 156.801 106.782 157.986 106.961 159.281H101.336ZM111.362 177V150.818H129.004V155.382H116.897V161.621H128.096V166.185H116.897V172.436H129.055V177H111.362ZM155.304 150.818V177H150.522L139.132 160.521H138.94V177H133.404V150.818H138.262L149.564 167.284H149.794V150.818H155.304ZM169.158 177H159.877V150.818H169.235C171.869 150.818 174.136 151.342 176.036 152.391C177.937 153.43 179.398 154.926 180.421 156.878C181.452 158.83 181.968 161.165 181.968 163.884C181.968 166.611 181.452 168.955 180.421 170.915C179.398 172.875 177.928 174.379 176.011 175.428C174.102 176.476 171.817 177 169.158 177ZM165.413 172.257H168.928C170.565 172.257 171.941 171.967 173.058 171.388C174.183 170.8 175.026 169.892 175.589 168.665C176.16 167.429 176.445 165.835 176.445 163.884C176.445 161.949 176.16 160.368 175.589 159.141C175.026 157.913 174.187 157.01 173.07 156.43C171.954 155.851 170.577 155.561 168.941 155.561H165.413V172.257ZM186.069 177V150.818H203.711V155.382H191.604V161.621H202.803V166.185H191.604V172.436H203.762V177H186.069Z" fill="#496D86"/>
<path d="M150.833 88.1666H130V109H150.833V88.1666ZM146.667 42.3333V50.6666H113.333V42.3333H105V50.6666H100.833C96.2083 50.6666 92.5417 54.4166 92.5417 58.9999L92.5 117.333C92.5 121.917 96.2083 125.667 100.833 125.667H159.167C163.75 125.667 167.5 121.917 167.5 117.333V58.9999C167.5 54.4166 163.75 50.6666 159.167 50.6666H155V42.3333H146.667ZM159.167 117.333H100.833V71.4999H159.167V117.333Z" fill="#007AC7"/>
</svg>
