<svg width="21" height="21" viewBox="0 0 21 21" fill="none" xmlns="http://www.w3.org/2000/svg">
<path d="M17.25 14.859C16.395 14.859 15.63 15.1654 15.045 15.6454L7.02375 11.4072C7.08 11.1723 7.125 10.9374 7.125 10.6923C7.125 10.4472 7.08 10.2123 7.02375 9.9774L14.955 5.78005C15.5625 6.29067 16.3612 6.60726 17.25 6.60726C19.1175 6.60726 20.625 5.23878 20.625 3.5435C20.625 1.84822 19.1175 0.479736 17.25 0.479736C15.3825 0.479736 13.875 1.84822 13.875 3.5435C13.875 3.7886 13.92 4.02349 13.9763 4.25838L6.045 8.45573C5.4375 7.94511 4.63875 7.62852 3.75 7.62852C1.8825 7.62852 0.375 8.997 0.375 10.6923C0.375 12.3876 1.8825 13.756 3.75 13.756C4.63875 13.756 5.4375 13.4395 6.045 12.9288L14.055 17.1772C13.9987 17.3917 13.965 17.6164 13.965 17.8411C13.965 19.4853 15.4387 20.8231 17.25 20.8231C19.0613 20.8231 20.535 19.4853 20.535 17.8411C20.535 16.1968 19.0613 14.859 17.25 14.859Z" fill="white"/>
</svg>
